<?xml version="1.0" encoding="UTF-8"?>
<svg version="1.1" xmlns="http://www.w3.org/2000/svg" width="1080" height="1080">
<path d="M0 0 C356.4 0 712.8 0 1080 0 C1080 356.4 1080 712.8 1080 1080 C723.6 1080 367.2 1080 0 1080 C0 723.6 0 367.2 0 0 Z " fill="#FEFEFE" transform="translate(0,0)"/>
<path d="M0 0 C3.27806278 4.91709417 2.64153984 10.26026588 2 16 C0.88202996 19.21823414 -0.75771103 21.45627124 -3 24 C-3.6084375 24.69222656 -4.216875 25.38445312 -4.84375 26.09765625 C-9.72092385 31.25690545 -15.15214978 35.57282557 -20.75097656 39.90234375 C-24.47555224 42.78640888 -28.13175724 45.71941967 -31.6875 48.8125 C-32.83798828 49.81216797 -32.83798828 49.81216797 -34.01171875 50.83203125 C-38.57045427 55.80275466 -39.52990707 60.60663835 -39.4375 67.1875 C-39.43065186 67.93563965 -39.42380371 68.6837793 -39.41674805 69.45458984 C-39.1444452 78.9290973 -36.16255412 86.78530249 -30 94 C-27.30041101 96.09218147 -25.68122065 96.90494596 -22.3125 97.375 C-21.549375 97.25125 -20.78625 97.1275 -20 97 C-17.27243697 92.90865545 -17.3822399 89.80553323 -18 85 C-19.04694567 81.70333539 -20.47252679 78.66130967 -22 75.5625 C-22.75282917 73.98181309 -23.50297037 72.39984226 -24.25 70.81640625 C-24.58515625 70.13006104 -24.9203125 69.44371582 -25.265625 68.73657227 C-26 67 -26 67 -26 65 C-11.26385133 68.57429989 -0.17966178 76.6385274 7.88916016 89.43310547 C10.05545384 93.01297636 11.93669773 96.70353853 13.78125 100.45703125 C14.29806335 101.50023529 14.29806335 101.50023529 14.82531738 102.56451416 C15.88634195 104.70830709 16.94319458 106.8541248 18 109 C18.62864691 110.26957832 19.25754339 111.5390331 19.88671875 112.80834961 C21.7708374 116.61590531 23.63944583 120.4308787 25.5 124.25 C25.83671722 124.94099792 26.17343445 125.63199585 26.52035522 126.34393311 C32.75206549 139.1648944 38.59979502 152.13901165 44.31445312 165.19750977 C47.24503162 171.881986 50.20768246 178.52593636 53.44921875 185.06640625 C53.96895264 186.11554199 54.48868652 187.16467773 55.02416992 188.24560547 C55.96776148 190.1265448 56.92619665 192.00015745 57.90356445 193.86376953 C60.58874169 199.20481785 62.4039413 204.00026867 61 210 C59.55683759 212.77789338 57.70602543 214.92151495 55.5625 217.1875 C54.742052 218.08976318 54.742052 218.08976318 53.9050293 219.01025391 C43.54060492 230.11834807 43.54060492 230.11834807 35.6875 230.625 C25.60010465 229.69358947 16.0392822 224.83417995 6.9375 220.6875 C-0.86148842 217.19726427 -8.67023246 213.83410492 -16.6875 210.875 C-17.44619385 210.59229248 -18.2048877 210.30958496 -18.98657227 210.01831055 C-29.21917806 206.32471979 -42.55044303 204.6207722 -52.89453125 208.8515625 C-62.50690423 214.09467504 -68.39220932 221.84437218 -74 231 C-74.34853027 231.56090332 -74.69706055 232.12180664 -75.05615234 232.69970703 C-81.6303764 243.41608994 -86.73128514 254.85630176 -91.97019958 266.26185608 C-102.21089713 288.5508076 -113.10660926 310.15497955 -129 329 C-129.64710938 329.78761719 -130.29421875 330.57523438 -130.9609375 331.38671875 C-145.33952008 348.4653519 -166.75012522 361.85925242 -189 365 C-191.32291409 365.08957035 -193.64801695 365.13061574 -195.97265625 365.1328125 C-197.28427734 365.13410156 -198.59589844 365.13539063 -199.94726562 365.13671875 C-200.62313721 365.13462402 -201.29900879 365.1325293 -201.99536133 365.13037109 C-204.060133 365.12500615 -206.12468805 365.1303392 -208.18945312 365.13671875 C-209.49978516 365.13542969 -210.81011719 365.13414062 -212.16015625 365.1328125 C-213.35261963 365.13168457 -214.54508301 365.13055664 -215.77368164 365.12939453 C-218.64340808 365.01430145 -221.21230835 364.66137484 -224 364 C-219.8477043 355.18435681 -213.88605083 347.12965012 -208.07495117 339.34619141 C-201.81554938 330.93739572 -196.84051117 322.75697433 -193 313 C-192.46439453 311.73542969 -192.46439453 311.73542969 -191.91796875 310.4453125 C-187.16856712 297.56337383 -190.20815024 282.11203785 -191.375 268.75 C-191.46941376 267.64191483 -191.46941376 267.64191483 -191.56573486 266.51144409 C-191.75078223 264.3764668 -191.94752621 262.24291198 -192.1484375 260.109375 C-192.26364746 258.86124023 -192.37885742 257.61310547 -192.49755859 256.32714844 C-192.96671557 253.22040826 -193.58491519 250.79664597 -195 248 C-197.76250036 246.61874982 -199.94731099 246.80920694 -203 247 C-205.27864279 248.84911416 -205.27864279 248.84911416 -205.23046875 251.6953125 C-205.14880394 258.21364879 -204.93680396 264.68440615 -204.5 271.1875 C-202.7730481 297.02110257 -207.91597895 317.15860321 -224.5078125 337.27929688 C-229.52408883 343.45171749 -233.36293096 349.92841056 -237 357 C-237.41894531 357.79792969 -237.83789062 358.59585937 -238.26953125 359.41796875 C-239.32248654 361.58303413 -240.19332593 363.73195987 -241 366 C-241.29777344 366.83273437 -241.59554688 367.66546875 -241.90234375 368.5234375 C-249.99448481 396.3425031 -240.62712125 422.11140606 -229 447.0625 C-227.48313187 450.32915636 -225.96701981 453.5960307 -224.4609375 456.86767578 C-223.48967889 458.95010358 -222.49488658 461.0217214 -221.4765625 463.08154297 C-221.00992187 464.04334473 -220.54328125 465.00514648 -220.0625 465.99609375 C-219.64097656 466.84228271 -219.21945312 467.68847168 -218.78515625 468.56030273 C-217.85851376 471.43963682 -218.17397986 473.12720714 -219 476 C-226.48687153 473.73652721 -230.44027852 471.03771968 -234.66015625 464.4453125 C-235.08711288 463.7957962 -235.51406952 463.14627991 -235.95396423 462.4770813 C-237.3352943 460.36715083 -238.69972481 458.24695383 -240.0625 456.125 C-241.00834215 454.66626243 -241.95430629 453.20760395 -242.90039062 451.74902344 C-262.52591289 421.35882675 -273.62546449 394.62244454 -273.08919907 358.06476402 C-273.05363844 355.56291248 -273.03358865 353.06132841 -273.0173645 350.5592804 C-272.96907132 343.46122147 -272.8965947 336.36353637 -272.80810547 329.26586914 C-272.75459103 324.8891257 -272.72049358 320.5125777 -272.69836807 316.13556862 C-272.68597741 314.47810304 -272.66600259 312.82067571 -272.6382103 311.16339684 C-272.59982299 308.8595684 -272.58599827 306.55679037 -272.57763672 304.25268555 C-272.56272186 302.94494675 -272.54780701 301.63720795 -272.53244019 300.2898407 C-272.73492357 296.93341187 -272.73492357 296.93341187 -274.86624146 294.5662384 C-277.49622875 292.63575423 -278.80351711 292.5901945 -282 293 C-282.99 293.33 -283.98 293.66 -285 294 C-285.81925211 298.45937227 -286.25473306 302.84302669 -286.53515625 307.3671875 C-286.59962196 308.38656906 -286.59962196 308.38656906 -286.66539001 309.42654419 C-286.80065225 311.57586033 -286.93164501 313.7254115 -287.0625 315.875 C-287.15401374 317.34116353 -287.24580785 318.8073096 -287.33789062 320.2734375 C-287.56183545 323.8487621 -287.78195465 327.4243102 -288 331 C-291.44789988 329.67603844 -294.47601965 328.16366434 -297.60058594 326.18359375 C-333.15081122 303.72258185 -370.59662267 295.4726692 -412 295 C-410.7466776 290.97838656 -409.2657196 287.34419085 -407.28515625 283.62890625 C-406.76373047 282.64212891 -406.24230469 281.65535156 -405.70507812 280.63867188 C-405.16302734 279.62353516 -404.62097656 278.60839844 -404.0625 277.5625 C-396.76973465 264.99077364 -396.76973465 264.99077364 -395 251 C-396.93375013 248.71291724 -396.93375013 248.71291724 -400.25 248.25 C-403.99658658 248.5770006 -403.99658658 248.5770006 -405.4765625 250.87841797 C-405.93804687 251.69971191 -406.39953125 252.52100586 -406.875 253.3671875 C-407.39094727 254.27726563 -407.90689453 255.18734375 -408.43847656 256.125 C-409.21143066 257.548125 -409.21143066 257.548125 -410 259 C-410.47663086 259.8765625 -410.95326172 260.753125 -411.44433594 261.65625 C-412.90208865 264.38463188 -414.32987727 267.12685652 -415.75 269.875 C-416.26804199 270.86878662 -416.78608398 271.86257324 -417.31982422 272.88647461 C-419.82519023 277.71189396 -422.28634152 282.55194991 -424.6484375 287.44921875 C-436.65125073 312.3051616 -452.77356784 332.40447143 -479 343 C-488.05138399 345.99838807 -497.37005613 347.42826633 -506.75 349 C-529.7959507 352.87422427 -550.56036593 363.08572647 -565 382 C-581.52998863 406.18502027 -588.53822109 432.62280022 -593.21313477 461.15161133 C-593.49821899 462.81099731 -593.49821899 462.81099731 -593.7890625 464.50390625 C-593.95100098 465.49205322 -594.11293945 466.4802002 -594.27978516 467.49829102 C-595.06715832 470.2332784 -595.706659 471.34369817 -598 473 C-601.89423013 473.49562929 -604.0561313 473.7257982 -607.22753906 471.28710938 C-609 469 -609 469 -609.26855469 466.66992188 C-609.15415039 465.77853516 -609.03974609 464.88714844 -608.921875 463.96875 C-608.79361328 462.90527344 -608.66535156 461.84179688 -608.53320312 460.74609375 C-608.26926758 458.89177734 -608.26926758 458.89177734 -608 457 C-607.80579861 455.53266328 -607.61248873 454.06520838 -607.41992188 452.59765625 C-598.97908625 389.67170917 -598.97908625 389.67170917 -583 365 C-582.52691406 364.26394531 -582.05382812 363.52789063 -581.56640625 362.76953125 C-576.63926069 355.82729374 -570.0393835 350.73834335 -563.56201172 345.3203125 C-544.241051 328.98899716 -536.90711159 305.54247778 -533.7265625 281.359375 C-531.05175371 261.1999169 -525.95137695 241.3901262 -515 224 C-514.38382813 223.0203125 -513.76765625 222.040625 -513.1328125 221.03125 C-508.80333544 214.36014916 -504.15272891 208.05606957 -499 202 C-498.16597656 201.01902344 -497.33195312 200.03804687 -496.47265625 199.02734375 C-480.58522129 180.78600052 -460.0725957 170.15854661 -436 168 C-430.90866149 167.74813654 -425.81364142 167.815189 -420.71817207 167.88023567 C-418.24713813 167.91101917 -415.77634921 167.92738203 -413.30516052 167.94029236 C-406.29008469 167.97954255 -399.27530978 168.04481926 -392.26049805 168.11645508 C-387.93903337 168.159608 -383.61766713 168.18742662 -379.29603386 168.20675468 C-377.67001403 168.21718216 -376.04401881 168.2334141 -374.41812325 168.25605965 C-360.93199451 168.44370669 -347.97879126 167.32926798 -335.4375 161.875 C-334.73407471 161.5749707 -334.03064941 161.27494141 -333.3059082 160.96582031 C-315.62999344 153.1452893 -302.57044478 140.50490526 -290.20703125 125.87890625 C-274.99379569 108.01989059 -255.55906703 98.92693045 -233.07568359 93.90234375 C-201.76021621 86.81590616 -172.62027284 71.85301398 -145.03149414 55.80249023 C-125.79813795 44.68885716 -105.45409019 45.46804659 -84 46 C-85.98989899 59.52525253 -85.98989899 59.52525253 -87.5 65.5 C-91.07235974 80.58732643 -94.16259538 97.02037534 -86.74609375 111.4375 C-80.86990243 120.91626094 -72.90553228 126.93768723 -62.125 129.75 C-51.97019881 130.938626 -51.97019881 130.938626 -43 127 C-43.41059499 122.93897595 -43.41059499 122.93897595 -45.125 119.3125 C-49.81745084 116.02778441 -55.04856278 114.70387679 -60.5 113.1875 C-67.76932871 110.98163474 -71.93598767 108.32905215 -75.9375 101.875 C-80.33413824 89.5264173 -75.60872807 72.65821556 -71 61 C-62.4397707 44.35873999 -49.19208351 36.45472658 -32.28320312 29.91015625 C-16.27218786 23.66549723 -7.51558975 15.40695899 0 0 Z " fill="#FEFEFE" transform="translate(848,317)"/>
<path d="M0 0 C4.44175941 3.6005171 7.04063739 8.65308849 9.65625 13.6328125 C11.08234103 16.14505426 12.70854738 18.37464672 14.4375 20.6875 C22.87997851 32.45524357 26.56548974 45.61368911 25 60 C20.98027515 76.07889941 10.33474574 87.73471345 -3 97 C-0.38710926 100.54871332 1.81048739 103.45696164 5.875 105.3125 C11.91134598 104.7088654 15.39216802 100.83237403 19.265625 96.41796875 C30.58931633 82.03225885 36.89879045 65.73353775 38.9375 47.625 C39.76765222 40.58925448 42.46209491 35.07451629 46 29 C57.07008945 34.53504472 61.27480811 43.06409918 65.19921875 54.4921875 C71.36234498 75.64144173 68.6616906 97.62961654 58.40234375 117.01953125 C54.80162213 122.83346237 50.6290876 128.2386124 46.37597656 133.58666992 C42.44929255 138.54762827 40.42066728 141.93340362 40.64208984 148.28198242 C41.8678008 157.59019532 47.77801504 166.84056752 51.875 175.1875 C57.59759101 186.95735047 63.09181228 198.81971052 68.44677734 210.76123047 C71.41771649 217.37719634 74.43613011 223.95237739 77.65234375 230.453125 C78.21816162 231.61513428 78.78397949 232.77714355 79.36694336 233.97436523 C80.41684096 236.12046329 81.48767566 238.25651201 82.58422852 240.37915039 C85.98191138 247.39071633 87.24700888 253.374671 85 261 C83.19604259 264.07911035 80.98626672 266.33949751 78.375 268.75 C77.08638742 270.0251811 75.79861651 271.30121334 74.51171875 272.578125 C73.89731934 273.17044922 73.28291992 273.76277344 72.64990234 274.37304688 C70.68782012 276.30783763 68.92875207 278.36582881 67.1875 280.5 C62.09644654 286.40099378 54.81114333 293.02047016 46.9375 294.34765625 C34.38161057 295.15305047 21.4186611 288.056777 10.21936035 282.98028564 C-14.23892929 270.24728366 -14.23892929 270.24728366 -40.296875 269.85546875 C-48.6667872 274.46521363 -53.14998709 283.62417889 -57.5 291.75 C-58.0055542 292.68521484 -58.5111084 293.62042969 -59.03198242 294.58398438 C-65.96315151 307.51626153 -72.43824096 320.68966963 -78.91220093 333.8550415 C-79.83453349 335.73026085 -80.76078068 337.60350796 -81.6875 339.4765625 C-82.2340625 340.58596191 -82.780625 341.69536133 -83.34375 342.83837891 C-85.47508617 346.90689356 -87.9308987 350.71216982 -90.43359375 354.55859375 C-105.35626205 377.81711666 -99.19005835 407.45507096 -95.3125 433.125 C-95.14277679 434.26121796 -94.97305359 435.39743591 -94.79818726 436.56808472 C-93.11190737 447.70946563 -91.27192767 458.77371674 -88.453125 469.69140625 C-88.26128128 470.44112701 -88.06943756 471.19084778 -87.8717804 471.96328735 C-82.81045972 490.4500847 -66.61454003 504.69265623 -53.32299805 517.60400391 C-52.13830933 518.76295166 -52.13830933 518.76295166 -50.9296875 519.9453125 C-50.22054199 520.63125488 -49.51139648 521.31719727 -48.78076172 522.02392578 C-46.05476097 525.04891208 -44.97882838 526.96259071 -45.0625 531.0625 C-46 534 -46 534 -48.25 535.8125 C-53.50879175 538.08334189 -58.63843003 538.17139577 -64.30078125 538.203125 C-65.09598679 538.20882507 -65.89119232 538.21452515 -66.710495 538.22039795 C-68.38893313 538.22981692 -70.0673895 538.23636955 -71.74584961 538.24023438 C-74.29379055 538.24992881 -76.84092028 538.28097635 -79.38867188 538.3125 C-81.02603692 538.31903235 -82.66340768 538.32428191 -84.30078125 538.328125 C-85.05313553 538.3404718 -85.80548981 538.3528186 -86.5806427 538.36553955 C-95.64657887 538.32796106 -101.8511681 534.96684115 -108.36328125 528.75390625 C-129.40183709 506.78030349 -136.53122393 481.01410306 -142.54296875 451.9140625 C-144.04643963 444.67199152 -145.74681357 437.48527732 -147.52758789 430.30688477 C-147.72215576 429.51338623 -147.91672363 428.7198877 -148.1171875 427.90234375 C-148.28847168 427.21648193 -148.45975586 426.53062012 -148.63623047 425.82397461 C-149 424 -149 424 -149 421 C-149.5694635 421.05819916 -150.138927 421.11639832 -150.72564697 421.17636108 C-156.76254682 421.79328863 -162.79947798 422.40990912 -168.83642578 423.02636719 C-171.07634235 423.2551328 -173.31625146 423.4839715 -175.55615234 423.71289062 C-180.96500257 424.26565524 -186.3739682 424.81722287 -191.78320312 425.36621094 C-195.79827841 425.77400905 -199.81250817 426.18889802 -203.82617188 426.61035156 C-205.60807138 426.79493671 -207.38997234 426.97950785 -209.171875 427.1640625 C-209.96781067 427.24933197 -210.76374634 427.33460144 -211.58380127 427.42245483 C-216.08411643 427.88450338 -220.47580038 428.08017379 -225 428 C-224.0308379 434.67148658 -223.0300358 441.33764078 -222 448 C-221.8453125 449.010625 -221.690625 450.02125 -221.53125 451.0625 C-219.4005612 463.19103627 -214.02533694 474.62639955 -208.8125 485.6875 C-208.24234509 486.90779381 -207.67219543 488.12809007 -207.10205078 489.34838867 C-203.3372032 497.36512364 -199.38532805 505.267668 -195.15942383 513.05151367 C-188.17173987 525.92609235 -188.17173987 525.92609235 -189 532 C-192.15637509 535.90017345 -196.22913631 536.426732 -201 537 C-212.80519166 537.6979624 -222.21319285 537.20202097 -231.98046875 529.98828125 C-237.61701532 524.43895397 -241.27486234 517.90397676 -244.75 510.875 C-249.126663 502.29132506 -254.19702466 494.66856809 -260 487 C-272.74765439 470.1165563 -280.98359014 450.14170142 -281.17578125 428.765625 C-281.19898819 427.37238087 -281.22310588 425.97915167 -281.24804688 424.5859375 C-281.28299217 422.42275061 -281.31243694 420.26011329 -281.32592773 418.09667969 C-281.40444597 407.52933255 -281.86233437 398.0554996 -289.5 390 C-296.94628107 383.85146335 -306.3054927 380.06203369 -315 376 C-314.67 376.99 -314.34 377.98 -314 379 C-312.60353857 398.55045999 -318.96454471 413.26627587 -331.5390625 428.22265625 C-333.25808078 430.16269117 -334.98693559 432.058694 -336.7734375 433.93359375 C-345.28144729 442.87451067 -354.25405679 453.23664428 -354.3125 466.25 C-354.32925781 467.10078125 -354.34601563 467.9515625 -354.36328125 468.828125 C-353.30597428 478.05966539 -349.31230707 485.68519607 -344.8125 493.6875 C-343.6455538 495.80192908 -342.47888685 497.91651231 -341.3125 500.03125 C-340.74660156 501.04960938 -340.18070312 502.06796875 -339.59765625 503.1171875 C-337.46982041 506.95665656 -335.38203946 510.8163725 -333.3125 514.6875 C-332.71050781 515.80511719 -332.10851562 516.92273438 -331.48828125 518.07421875 C-328.70489823 523.54601371 -327.29296601 526.85467764 -329 533 C-337.11129355 539.07984257 -350.27464583 538.9190227 -360 538 C-371.89730004 535.71100333 -380.16418756 530.32271773 -387.33203125 520.62890625 C-389.57900948 517.08741597 -391.36849019 513.37123272 -393.16015625 509.58251953 C-395.4363843 504.86765556 -398.15089302 500.61538158 -401.125 496.3125 C-410.27128799 482.99746082 -414.74576251 470.59340917 -412.65234375 454.29296875 C-411.87680905 450.1546113 -410.75375848 446.28541543 -409.375 442.3125 C-406.56543959 433.16341867 -406.61808348 422.95096971 -410.75390625 414.25 C-415.66800188 405.37689942 -422.02073772 398.28500035 -429 391 C-429.60585938 390.20207031 -430.21171875 389.40414063 -430.8359375 388.58203125 C-433.03521002 386.65155396 -433.03521002 386.65155396 -436.58203125 386.96875 C-441.93955062 387.95790659 -446.76022833 390.24880069 -451.6875 392.5 C-453.736947 393.4089267 -455.78642688 394.31777926 -457.8359375 395.2265625 C-460.83618131 396.57221176 -463.83329193 397.92399311 -466.82519531 399.28808594 C-479.92839651 405.25265935 -492.30349402 409.08384587 -506.4453125 411.6171875 C-524.79175641 415.26844538 -539.63277926 425.44002288 -550.13671875 440.90234375 C-564.6634911 465.05272211 -568.8395903 492.93149929 -573.56469727 520.2668457 C-573.73670654 521.24355225 -573.90871582 522.22025879 -574.0859375 523.2265625 C-574.23208496 524.06912598 -574.37823242 524.91168945 -574.52880859 525.77978516 C-575.19620488 528.92450111 -576.16986663 531.35647402 -578 534 C-583.61982841 536.83864918 -589.34605683 536.33008269 -595.5 536.3125 C-597.19189453 536.33666992 -597.19189453 536.33666992 -598.91796875 536.36132812 C-600.55185547 536.36229492 -600.55185547 536.36229492 -602.21875 536.36328125 C-603.7027832 536.36775269 -603.7027832 536.36775269 -605.21679688 536.37231445 C-608.48841861 535.9346633 -610.34402033 534.93122893 -613 533 C-619.5606035 523.72466402 -615.1205524 510.02742769 -613.375 499.625 C-613.24061523 498.81009094 -613.10623047 497.99518188 -612.96777344 497.15557861 C-610.65097027 483.12981381 -607.90178005 469.24282927 -604.75439453 455.37792969 C-603.96047712 451.8230296 -603.20905921 448.26093147 -602.46484375 444.6953125 C-601.95585521 442.29684825 -601.44674462 439.89840989 -600.9375 437.5 C-600.71642578 436.42024902 -600.49535156 435.34049805 -600.26757812 434.22802734 C-595.05225849 410.10905275 -580.88696092 392.6006987 -561.921875 377.55859375 C-546.16815391 363.76355723 -540.80952393 341.15557211 -539.0625 321.125 C-537.45563222 303.437537 -531.91367031 286.81150536 -524 271 C-523.43410156 269.84242188 -522.86820313 268.68484375 -522.28515625 267.4921875 C-514.51781566 252.32302823 -503.91322694 239.80116752 -491.86328125 227.8828125 C-491.36111084 227.38612061 -490.85894043 226.88942871 -490.34155273 226.37768555 C-488.96243723 225.0233652 -487.57144203 223.68117239 -486.1796875 222.33984375 C-483.25365105 219.19881179 -482.15517503 217.10839308 -481.5625 212.875 C-482.69375697 202.85529541 -489.68182714 193.8901509 -496.94140625 187.21484375 C-509.73034571 177.11287339 -523.99791937 174.03623833 -540 175 C-550.86821595 176.37110595 -559.38299877 180.19891245 -566.375 188.8125 C-572.48618359 197.72032693 -574.92466395 208.367155 -576.3671875 218.90625 C-576.6156616 220.63805296 -576.86436715 222.36982273 -577.11328125 224.1015625 C-577.49382587 226.78827574 -577.87157478 229.4753221 -578.24462891 232.16308594 C-584.09192592 274.06226055 -584.09192592 274.06226055 -599 287 C-611.0920823 295.18333595 -627.92118099 295.94757308 -642 293.3125 C-657.37826401 288.93584007 -667.21221301 278.05368577 -674.9609375 264.59375 C-678.60913748 258.02331206 -681.90516987 251.28465247 -685 244.4375 C-685.45439453 243.45595947 -685.45439453 243.45595947 -685.91796875 242.45458984 C-687.66294543 238.478214 -688.40362033 235.33261196 -688 231 C-687 228.625 -687 228.625 -685 227 C-678.52093445 226.39324144 -674.66072356 227.681892 -669.0625 230.8125 C-667.66104119 231.55362963 -666.25740555 232.29065838 -664.8515625 233.0234375 C-663.85431152 233.54502441 -663.85431152 233.54502441 -662.83691406 234.07714844 C-655.69893716 237.66321339 -648.35505254 238.9466547 -640.40625 239.17578125 C-639.60316406 239.19962891 -638.80007813 239.22347656 -637.97265625 239.24804688 C-636.3244824 239.29100875 -634.67596172 239.32226349 -633.02734375 239.34179688 C-627.22478957 239.54204553 -623.75372545 240.6078944 -619 244 C-611.81581496 251.76307598 -609.78966297 261.91472279 -608 272 C-606.68 272.33 -605.36 272.66 -604 273 C-603.3257483 270.94175797 -602.65211771 268.88331158 -601.98046875 266.82421875 C-601.33061027 264.95231563 -600.62483865 263.09883923 -599.86328125 261.26953125 C-593.51966301 245.4805256 -591.77714225 227.96226576 -589.47216797 211.20507812 C-587.32834603 196.65280596 -582.65635898 181.79209478 -571 172 C-555.21444538 161.05226493 -535.8508918 157.73295908 -516.88769531 160.28417969 C-499.18746512 163.500052 -489.84399754 173.38451669 -479.89453125 187.38671875 C-474.11462506 195.35941409 -466.9285267 201.88975565 -457 204 C-448.73510954 205.11020917 -441.64335034 203.52461463 -433.6875 201.5 C-417.78424784 197.51765966 -401.9728889 198.67396735 -385.76171875 199.76953125 C-379.36676113 200.1289901 -372.96599313 200.15431268 -366.5625 200.1875 C-364.78407715 200.20683594 -364.78407715 200.20683594 -362.96972656 200.2265625 C-338.9758814 200.25360544 -319.52043793 189.68806453 -302.75 173.0625 C-298.18279243 168.4403106 -294.06361906 163.52512428 -289.99609375 158.45703125 C-276.18998998 141.46282524 -256.7036272 133.5603847 -236.0234375 128.171875 C-227.84974686 126.02520142 -219.82641212 123.48956016 -211.8125 120.8125 C-211.09388794 120.57289551 -210.37527588 120.33329102 -209.6348877 120.08642578 C-197.73263362 116.09725584 -186.22293874 111.657826 -175 106 C-174.12956055 105.56155762 -173.25912109 105.12311523 -172.36230469 104.67138672 C-163.5746032 100.20875994 -154.89902924 95.57270527 -146.375 90.625 C-125.99613534 78.95952841 -106.4693973 77.38118881 -83.33447266 77.66015625 C-70.15974584 77.78400797 -59.97414469 76.55222098 -48 71 C-46.83645996 70.50870605 -45.67291992 70.01741211 -44.47412109 69.51123047 C-41.14334878 68.10284688 -37.85254635 66.6257229 -34.5625 65.125 C-33.47001953 64.64675781 -32.37753906 64.16851562 -31.25195312 63.67578125 C-22.77313206 59.81111116 -14.76961135 55.33827895 -10.44140625 46.71484375 C-7.74341449 38.73691112 -8.70097226 29.86113394 -8.9375 21.5625 C-9.00560956 18.95002915 -9.06745024 16.33808795 -9.11073303 13.7250824 C-9.1379493 12.10876368 -9.17955204 10.49260688 -9.23728943 8.87709045 C-9.3343652 3.49558027 -9.3343652 3.49558027 -7.66625977 1.02319336 C-4.84685841 -0.70810497 -3.23590565 -0.6344913 0 0 Z M7 46 C6.39865234 47.25103516 6.39865234 47.25103516 5.78515625 48.52734375 C-2.50920466 64.9467929 -14.11437539 71.92998572 -30.91308594 78.28149414 C-46.24069363 84.07958533 -57.84564881 93.9904254 -64.78515625 108.984375 C-67.7905198 116.44463435 -69.55268084 123.97456795 -70 132 C-70.06445312 132.97195313 -70.12890625 133.94390625 -70.1953125 134.9453125 C-70.43794542 141.3993483 -70.16761421 146.81834062 -66 152 C-61.36937903 156.53239568 -57.02905218 158.35533928 -50.875 160.1875 C-49.2882562 160.67839085 -47.70228817 161.17179784 -46.1171875 161.66796875 C-45.42222168 161.87703857 -44.72725586 162.0861084 -44.01123047 162.30151367 C-38.41773698 164.24409499 -38.41773698 164.24409499 -36.6875 167.375 C-35.95564624 170.16935073 -35.74822342 171.40703423 -37 174 C-42.65205938 177.58516633 -50.22335339 176.48040279 -56.5625 175.375 C-65.93049268 172.94935904 -73.62995557 166.96205202 -79 159 C-80.67698722 155.4127056 -81.93763477 151.81131028 -83 148 C-83.19207031 147.3503125 -83.38414062 146.700625 -83.58203125 146.03125 C-86.55908268 131.56333652 -81.36402157 115.24936449 -78.27050781 101.15576172 C-77.59472709 98.04756557 -77 95.19129825 -77 92 C-101.10524322 91.40231134 -120.57772537 92.08973725 -142 104 C-145.89241605 106.1312758 -149.78963141 108.25371517 -153.6875 110.375 C-154.71351318 110.93396973 -155.73952637 111.49293945 -156.79663086 112.06884766 C-181.55191055 125.4833833 -206.70742474 135.58529191 -234.15625 141.9765625 C-258.02913462 147.74417118 -275.30717964 162.15878984 -290.98046875 180.484375 C-302.54586651 193.98860444 -315.51518113 202.64055479 -332 209 C-332.86625 209.33773437 -333.7325 209.67546875 -334.625 210.0234375 C-345.17600989 213.8293375 -355.7480319 214.26120657 -366.84237671 214.11976433 C-369.31006854 214.08909725 -371.7775162 214.07264696 -374.24536133 214.05970764 C-381.25474516 214.02038908 -388.26383298 213.95558591 -395.27294922 213.88354492 C-399.58448976 213.84020478 -403.89592996 213.81249727 -408.2076416 213.79324532 C-409.82756472 213.7828579 -411.44746388 213.76667655 -413.06726074 213.74394035 C-421.8729356 213.62059871 -430.40085075 213.98057124 -439.1171875 215.31469727 C-439.8820195 215.42995978 -440.6468515 215.5452223 -441.43486023 215.66397762 C-466.31609524 219.86520186 -485.78593647 238.24091875 -500 258 C-500.43973145 258.6074707 -500.87946289 259.21494141 -501.33251953 259.84082031 C-515.81458018 280.06989952 -523.49589755 302.51161804 -526.66796875 327.10546875 C-529.53834936 349.22997544 -535.48718717 369.28124413 -551 386 C-551.64710938 386.70382812 -552.29421875 387.40765625 -552.9609375 388.1328125 C-556.56828355 391.88739716 -560.39239471 395.11580993 -564.5 398.3125 C-577.06796351 408.50227152 -583.12223487 422.98344852 -588.1875 437.9375 C-588.41324707 438.60338135 -588.63899414 439.2692627 -588.87158203 439.95532227 C-593.50055623 454.24117828 -596.10429294 468.70915492 -598.29248047 483.53076172 C-598.75460007 486.65611061 -599.22996558 489.77924478 -599.70703125 492.90234375 C-600.00858254 494.90613427 -600.30939135 496.91003669 -600.609375 498.9140625 C-600.74994324 499.83909576 -600.89051147 500.76412903 -601.03533936 501.7171936 C-602.64556398 509.84958648 -602.64556398 509.84958648 -600.4375 517.375 C-597.1005787 519.5996142 -594.93094707 519.50030235 -591 519 C-587.82967322 516.70065248 -587.42839731 514.37274097 -586.82421875 510.609375 C-586.5471106 508.97367554 -586.5471106 508.97367554 -586.2644043 507.30493164 C-586.07402588 506.1318042 -585.88364746 504.95867676 -585.6875 503.75 C-579.40770621 467.85214567 -569.05015912 430.97930945 -537.75 408.875 C-523.70265555 399.91586178 -508.65465508 396.41861405 -492.5 393.5625 C-468.22127449 389.2281329 -446.42321591 379.25340789 -431.85205078 358.35345459 C-424.97298425 347.93390643 -419.30650124 337.03673403 -413.875 325.8125 C-410.97859937 319.84266173 -408.0508201 313.8927061 -405 308 C-404.65263794 307.3269281 -404.30527588 306.6538562 -403.9473877 305.96038818 C-402.95792846 304.08246706 -401.93033679 302.23274667 -400.8828125 300.38671875 C-400.01100342 298.81796997 -400.01100342 298.81796997 -399.12158203 297.2175293 C-397 295 -397 295 -393.38232422 294.53833008 C-390 295 -390 295 -388 297 C-387.16059394 304.13894871 -389.36286526 308.89786997 -392.5625 315.1875 C-393.01415527 316.10571533 -393.46581055 317.02393066 -393.93115234 317.9699707 C-397.06769825 324.3003231 -400.35470008 330.54256626 -403.8203125 336.69921875 C-405.1520851 338.86568524 -405.1520851 338.86568524 -405 341 C-403.77204712 341.01401855 -403.77204712 341.01401855 -402.51928711 341.02832031 C-360.04756668 341.63408351 -321.66574283 351.39893083 -285.81640625 375.234375 C-283.27159127 377.17705346 -283.27159127 377.17705346 -281 377 C-280.94465088 376.09233887 -280.88930176 375.18467773 -280.83227539 374.24951172 C-280.62415821 370.86116472 -280.41323231 367.47301628 -280.20043945 364.08496094 C-280.10915463 362.62246504 -280.01896869 361.15990009 -279.92993164 359.69726562 C-279.80127721 357.5870454 -279.66858782 355.47711041 -279.53515625 353.3671875 C-279.456604 352.09987793 -279.37805176 350.83256836 -279.29711914 349.52685547 C-279.02555147 346.30330039 -278.58421884 343.1800337 -278 340 C-272.140625 338.828125 -272.140625 338.828125 -270 339 C-267.89161682 340.56439209 -267.89161682 340.56439209 -266 343 C-265.53916931 346.24273682 -265.53916931 346.24273682 -265.59350586 350.14160156 C-265.59774063 350.85465958 -265.6019754 351.56771759 -265.6063385 352.30238342 C-265.61820369 353.85149665 -265.63938355 355.40056018 -265.66877556 356.94944 C-265.71552007 359.42646388 -265.73756265 361.90266425 -265.7535553 364.38006592 C-265.792439 369.67039828 -265.86388966 374.96005526 -265.9375 380.25 C-266.02984398 387.15091811 -266.1077336 394.05171995 -266.15234375 400.953125 C-266.15783926 401.78865402 -266.16333477 402.62418304 -266.16899681 403.48503113 C-266.28726337 428.81337149 -263.18463089 450.63127962 -251 473 C-250.47889648 473.95737061 -250.47889648 473.95737061 -249.94726562 474.93408203 C-247.12031794 480.05367906 -244.09699827 485.03989986 -241 490 C-240.32018066 491.09038574 -239.64036133 492.18077148 -238.93994141 493.30419922 C-237.02535459 496.35863222 -235.08107781 499.39276643 -233.12005615 502.41757202 C-232.34028739 503.62586146 -231.56704243 504.83838958 -230.80084229 506.05532837 C-224.36349824 516.29417923 -224.36349824 516.29417923 -214 522 C-213.01 521.67 -212.02 521.34 -211 521 C-211.57147587 516.46886144 -212.77031244 512.89754674 -214.73046875 508.78125 C-215.28669922 507.60046875 -215.84292969 506.4196875 -216.41601562 505.203125 C-217.00608961 503.96854878 -217.59658549 502.73417413 -218.1875 501.5 C-230.9370531 474.63435105 -230.9370531 474.63435105 -234 463 C-234.38067627 461.68793579 -234.38067627 461.68793579 -234.76904297 460.34936523 C-236.82857154 452.8696541 -237.51138145 445.93004555 -237.4375 438.1875 C-237.42847656 437.04748535 -237.41945313 435.9074707 -237.41015625 434.73291016 C-236.94208878 411.88536666 -226.2114734 394.36136354 -212.5390625 376.84765625 C-198.41058777 358.61206677 -195.97090291 339.62853962 -197.5 317.1875 C-198.55588912 301.50107617 -198.55588912 301.50107617 -198 295 C-196 293 -196 293 -193.0625 292.75 C-190 293 -190 293 -187 295 C-185.67849078 298.48086436 -185.59976511 302.33140745 -185.24609375 306.01171875 C-185.14785812 307.03357018 -185.14785812 307.03357018 -185.04763794 308.07606506 C-181.80682146 342.25276475 -184.64534054 363.6784921 -205.703125 391.578125 C-212.35988323 400.23155417 -212.35988323 400.23155417 -217 410 C-211.18548623 411.35851217 -205.40892379 411.22297318 -199.46459961 411.24023438 C-197.46781407 411.24985396 -195.4711698 411.28101161 -193.47460938 411.3125 C-171.15266529 411.40156511 -151.80996209 402.29845672 -135 388 C-134.31292969 387.44699219 -133.62585938 386.89398437 -132.91796875 386.32421875 C-127.12575346 381.53735838 -122.56156484 375.94754948 -118 370 C-117.21753906 368.98292969 -116.43507813 367.96585938 -115.62890625 366.91796875 C-101.46464941 348.04945135 -91.69043605 326.51654847 -81.515625 305.35546875 C-78.59883335 299.29311899 -75.66703471 293.23888586 -72.6796875 287.2109375 C-72.36831848 286.57669357 -72.05694946 285.94244965 -71.73614502 285.28898621 C-68.6764813 279.15059369 -65.04464164 273.53700418 -61 268 C-60.49855469 267.31292969 -59.99710938 266.62585938 -59.48046875 265.91796875 C-54.11686248 259.13588809 -47.41190873 254.93777515 -39 253 C-35.31640625 252.734375 -35.31640625 252.734375 -31.5625 252.75 C-30.32628906 252.74484375 -29.09007812 252.7396875 -27.81640625 252.734375 C-19.72620401 253.2974597 -12.46206843 256.15533859 -4.9375 259 C-3.90052979 259.38937744 -2.86355957 259.77875488 -1.79516602 260.17993164 C6.73224196 263.42512527 15.10375529 266.9822059 23.42407227 270.72460938 C34.76953646 275.81987522 34.76953646 275.81987522 47 276 C55.68838894 272.2589538 62.85085821 263.72371269 68 256 C69.40562699 246.77133176 64.92089103 239.51336683 60.9375 231.5 C59.83097311 229.22420437 58.73092856 226.94534632 57.63110352 224.66630554 C56.87609012 223.1027741 56.11907164 221.54020939 55.36010742 219.97859192 C51.87222534 212.79061964 48.56769925 205.52646301 45.29623413 198.23803711 C38.15740451 182.34801029 30.73202625 166.6102671 23 151 C22.33097656 149.64575928 22.33097656 149.64575928 21.6484375 148.26416016 C13.08434557 131.06528214 3.8082665 119.07634982 -14.56640625 111.8125 C-16.88856946 110.8944385 -16.88856946 110.8944385 -19 111 C-17.42016704 116.07209529 -15.67580792 120.73981444 -13.3125 125.5 C-11.04786263 130.35669219 -9.9442783 134.66582721 -11 140 C-11.66 140.99 -12.32 141.98 -13 143 C-17.13493451 142.75676856 -19.43131698 142.46288153 -22.6875 139.8125 C-29.65610733 131.33716676 -32.24592772 124.22102796 -32.4375 113.375 C-32.45973633 112.65852295 -32.48197266 111.9420459 -32.50488281 111.20385742 C-32.47716387 104.5243616 -30.28034189 100.45813126 -25.6953125 95.515625 C-20.54132875 90.97259981 -15.3104333 86.63650622 -9.875 82.4375 C1.79572472 73.91999687 1.79572472 73.91999687 9 62 C9.84351803 53.58588787 9.84351803 53.58588787 7 46 Z " fill="#040404" transform="translate(841,271)"/>
<path d="M0 0 C1.31182251 -0.00628418 1.31182251 -0.00628418 2.65014648 -0.01269531 C3.59317627 -0.00334961 4.53620605 0.00599609 5.5078125 0.015625 C6.49015869 0.02239258 7.47250488 0.02916016 8.48461914 0.03613281 C22.78076913 0.23292655 36.83531825 1.83173527 50.9453125 4.078125 C51.89398193 4.21895508 52.84265137 4.35978516 53.82006836 4.50488281 C62.51047893 5.98931061 68.9050467 9.49946934 74.37890625 16.46484375 C79.00002834 23.10140849 79.47473995 29.41439796 78.6328125 37.265625 C76.05148561 50.15127305 64.50310819 62.56806753 55.79296875 71.87890625 C45.11947134 83.67186632 36.93244866 96.27839698 37.33911133 112.58886719 C38.26303853 124.15523759 43.25779689 134.18402441 48.7578125 144.203125 C50.01922991 146.52020351 51.26901291 148.84281223 52.515625 151.16796875 C53.06621582 152.17335693 53.61680664 153.17874512 54.18408203 154.21459961 C55.76896015 157.55235186 56.71099387 160.69490549 57.6328125 164.265625 C53.04832229 166.6318135 48.6749868 167.04977585 43.6328125 166.265625 C37.27638138 163.98886694 34.33239097 159.80451212 31.18359375 154.05859375 C29.53809505 151.09503816 27.72021345 148.32238202 25.8203125 145.515625 C25.14871094 144.51144531 24.47710937 143.50726562 23.78515625 142.47265625 C22.68097523 140.82740648 21.57623884 139.18249781 20.46142578 137.54443359 C10.82920147 123.35679835 5.77365047 110.46343271 9.04296875 93.08544922 C9.6888605 90.38554541 10.43237272 87.72066842 11.19140625 85.05078125 C14.67928056 72.37223084 13.08510031 60.14539678 7.23046875 48.46875 C3.54541393 42.23388952 -1.10600794 37.24213121 -6.07714844 32.04663086 C-10.95342007 26.85102403 -14.87204705 21.52160751 -15.71484375 14.27734375 C-15.28151969 10.52349148 -14.14268247 9.22019632 -11.5546875 6.515625 C-10.84699219 5.75765625 -10.13929688 4.9996875 -9.41015625 4.21875 C-6.26446887 1.21140069 -4.2916207 0.01253551 0 0 Z " fill="#FDFDFD" transform="translate(434.3671875,626.734375)"/>
<path d="M0 0 C0.10022461 0.68175293 0.20044922 1.36350586 0.30371094 2.06591797 C0.78493634 5.33574094 1.26730781 8.60539323 1.75 11.875 C1.92901855 13.08849121 2.10803711 14.30198242 2.29248047 15.55224609 C3.69312355 25.01178581 5.15845086 34.46026887 6.63964844 43.9074707 C7.57376575 49.95009985 8.36569639 55.98190972 9 62.0625 C11.53102168 84.99727931 19.35471344 101.71597615 36.078125 117.94921875 C38.46425058 120.49538934 39.75544465 122.7641561 41 126 C38.74759714 128.25240286 33.39839323 127.43293661 30.2890625 127.44873047 C22.41876862 127.25442384 18.3734622 124.47706181 12.96484375 118.90234375 C-2.54462496 101.00220549 -7.50064329 77.81493482 -12.59799194 55.38162231 C-12.76288116 54.65627289 -12.92777039 53.93092346 -13.09765625 53.18359375 C-13.26053131 52.46702606 -13.42340637 51.75045837 -13.59121704 51.01217651 C-14.71016209 46.13728261 -15.97132955 41.31914913 -17.34008789 36.5078125 C-19.54378453 28.75940967 -21.49627104 21.0798636 -20 13 C-18.125 10.125 -18.125 10.125 -15 8 C-14.17886719 7.40445313 -13.35773437 6.80890625 -12.51171875 6.1953125 C-3.91541165 0 -3.91541165 0 0 0 Z " fill="#FBFBFB" transform="translate(726,665)"/>
<path d="M0 0 C4.35403865 -0.08755672 8.70784877 -0.14057969 13.0625 -0.1875 C14.29162109 -0.21263672 15.52074219 -0.23777344 16.78710938 -0.26367188 C30.07155267 -0.37109325 30.07155267 -0.37109325 35.70703125 4.46484375 C40.42821751 10.75419788 41.99584682 15.11184494 41 23 C39.625 25.625 39.625 25.625 37 27 C29.59698638 28.2910636 22.55147965 26.48105685 16 23 C9.07217073 17.97683034 1.99406846 11.6248549 0.44750977 2.8737793 C0.29983154 1.92543213 0.15215332 0.97708496 0 0 Z " fill="#F9F9F9" transform="translate(177,523)"/>
<path d="M0 0 C0.33 0 0.66 0 1 0 C-0.24853559 21.55366708 -7.79753664 37.91697331 -22 54 C-26.28359673 52.1144852 -28.15103592 49.64034299 -31 46 C-29.7342682 42.56412032 -28.28237096 39.71681123 -26.1640625 36.734375 C-25.59985596 35.93451172 -25.03564941 35.13464844 -24.4543457 34.31054688 C-23.85066162 33.46556641 -23.24697754 32.62058594 -22.625 31.75 C-22.00520264 30.87408203 -21.38540527 29.99816406 -20.74682617 29.09570312 C-19.46558463 27.28566153 -18.18228354 25.47707611 -16.89697266 23.66992188 C-15.09498657 21.13369024 -13.3014478 18.59176615 -11.51171875 16.046875 C-1.78584323 2.22238269 -1.78584323 2.22238269 0 0 Z " fill="#F8F8F8" transform="translate(893,345)"/>
</svg>
